<svg width="20" height="20" viewBox="0 0 20 20" fill="none" xmlns="http://www.w3.org/2000/svg">
<path d="M15.0002 10.9833V8.33329C14.999 7.15256 14.58 6.01035 13.8173 5.10894C13.0547 4.20753 11.9977 3.60508 10.8335 3.40829V2.49996C10.8335 2.27895 10.7457 2.06698 10.5894 1.9107C10.4331 1.75442 10.2212 1.66663 10.0002 1.66663C9.77915 1.66663 9.56719 1.75442 9.41091 1.9107C9.25463 2.06698 9.16683 2.27895 9.16683 2.49996V3.40829C8.00261 3.60508 6.9456 4.20753 6.18298 5.10894C5.42037 6.01035 5.00136 7.15256 5.00016 8.33329V10.9833C4.51387 11.1552 4.09266 11.4734 3.79428 11.8941C3.49589 12.3148 3.33495 12.8175 3.3335 13.3333V15C3.3335 15.221 3.42129 15.4329 3.57757 15.5892C3.73385 15.7455 3.94582 15.8333 4.16683 15.8333H6.7835C6.9754 16.5394 7.39433 17.1628 7.97566 17.6072C8.55699 18.0517 9.26841 18.2925 10.0002 18.2925C10.7319 18.2925 11.4433 18.0517 12.0247 17.6072C12.606 17.1628 13.0249 16.5394 13.2168 15.8333H15.8335C16.0545 15.8333 16.2665 15.7455 16.4228 15.5892C16.579 15.4329 16.6668 15.221 16.6668 15V13.3333C16.6654 12.8175 16.5044 12.3148 16.206 11.8941C15.9077 11.4734 15.4865 11.1552 15.0002 10.9833ZM6.66683 8.33329C6.66683 7.44924 7.01802 6.60139 7.64314 5.97627C8.26826 5.35115 9.11611 4.99996 10.0002 4.99996C10.8842 4.99996 11.7321 5.35115 12.3572 5.97627C12.9823 6.60139 13.3335 7.44924 13.3335 8.33329V10.8333H6.66683V8.33329ZM10.0002 16.6666C9.70931 16.6649 9.42397 16.587 9.17252 16.4408C8.92107 16.2946 8.71225 16.0852 8.56683 15.8333H11.4335C11.2881 16.0852 11.0793 16.2946 10.8278 16.4408C10.5764 16.587 10.291 16.6649 10.0002 16.6666ZM15.0002 14.1666H5.00016V13.3333C5.00016 13.1123 5.08796 12.9003 5.24424 12.744C5.40052 12.5878 5.61248 12.5 5.8335 12.5H14.1668C14.3878 12.5 14.5998 12.5878 14.7561 12.744C14.9124 12.9003 15.0002 13.1123 15.0002 13.3333V14.1666Z" fill="#2E4457"/>
</svg>
