<svg width="20" height="20" viewBox="0 0 20 20" fill="none" xmlns="http://www.w3.org/2000/svg">
<g clip-path="url(#clip0_322_14681)">
<path d="M8.39708 2.63588C8.44699 2.08694 8.90724 1.66663 9.45841 1.66663H10.5422C11.0934 1.66663 11.5537 2.08694 11.6036 2.63588C11.6446 3.08656 11.9689 3.45448 12.3927 3.61329C12.5016 3.65412 12.6092 3.69766 12.7155 3.74382C13.1347 3.92603 13.6279 3.89111 13.9791 3.59844C14.4131 3.23679 15.0512 3.26574 15.4507 3.6652L16.2157 4.43015C16.5965 4.81101 16.6241 5.41944 16.2792 5.83323C15.9921 6.17787 15.9653 6.6645 16.1584 7.06947C16.242 7.24484 16.3183 7.42434 16.387 7.60759C16.5458 8.03135 16.9137 8.35571 17.3644 8.39671C17.9133 8.44663 18.3337 8.90688 18.3337 9.45804V10.5419C18.3337 11.093 17.9133 11.5533 17.3644 11.6032C16.9137 11.6442 16.5458 11.9685 16.387 12.3923C16.3253 12.5568 16.2575 12.7183 16.1838 12.8765C16.0047 13.2608 16.0337 13.7197 16.3052 14.0455C16.6353 14.4416 16.6089 15.0242 16.2442 15.3889L15.3892 16.2439C15.0246 16.6085 14.442 16.635 14.0458 16.3048C13.7201 16.0334 13.2612 16.0044 12.8768 16.1835C12.7187 16.2571 12.5572 16.325 12.3927 16.3866C11.9689 16.5455 11.6446 16.9134 11.6036 17.364C11.5537 17.913 11.0934 18.3333 10.5422 18.3333H9.45841C8.90724 18.3333 8.44699 17.913 8.39708 17.364C8.35608 16.9134 8.03172 16.5455 7.60797 16.3866C7.42472 16.318 7.24522 16.2416 7.06985 16.158C6.66488 15.965 6.17824 15.9917 5.83359 16.2789C5.41981 16.6237 4.81137 16.5961 4.43051 16.2153L3.66557 15.4503C3.2661 15.0509 3.23716 14.4127 3.59881 13.9787C3.89148 13.6275 3.9264 13.1344 3.74418 12.7151C3.69803 12.6089 3.65449 12.5013 3.61366 12.3923C3.45486 11.9685 3.08693 11.6442 2.63625 11.6032C2.08731 11.5533 1.66699 11.093 1.66699 10.5419V9.45804C1.66699 8.90688 2.08731 8.44663 2.63625 8.39671C3.08693 8.35571 3.45486 8.03136 3.61367 7.6076C3.66166 7.47954 3.71339 7.35331 3.76873 7.22903C3.96458 6.78926 3.93203 6.26877 3.62383 5.89893C3.24801 5.44794 3.27809 4.78478 3.6932 4.36967L4.37003 3.69284C4.78514 3.27773 5.4483 3.24764 5.89929 3.62348C6.26913 3.93167 6.78962 3.96421 7.22939 3.76837C7.35367 3.71303 7.4799 3.66129 7.60796 3.6133C8.03172 3.45449 8.35608 3.08657 8.39708 2.63588Z" fill="white" stroke="#2E4457" stroke-width="2.06897" stroke-linecap="round" stroke-linejoin="round"/>
<path d="M12.5 10C12.5 11.3808 11.3808 12.5 10 12.5C8.61925 12.5 7.5 11.3808 7.5 10C7.5 8.61925 8.61925 7.5 10 7.5C11.3808 7.5 12.5 8.61925 12.5 10Z" stroke="#2E4457" stroke-width="2.06897" stroke-linecap="round" stroke-linejoin="round"/>
</g>
<defs>
<clipPath id="clip0_322_14681">
<rect width="20" height="20" fill="white"/>
</clipPath>
</defs>
</svg>
